<svg xmlns="http://www.w3.org/2000/svg" width="1200" height="630" viewBox="0 0 1200 630" role="img" aria-label="任能量化 EnergyQuant Research - og-projects">
  <defs>
    <linearGradient id="bg" x1="0" y1="0" x2="1" y2="1">
      <stop offset="0%" stop-color="#07111f" />
      <stop offset="100%" stop-color="#162a46" />
    </linearGradient>
    <linearGradient id="accent" x1="0" y1="0" x2="1" y2="1">
      <stop offset="0%" stop-color="#ffd86a" />
      <stop offset="100%" stop-color="#e8b33d" />
    </linearGradient>
  </defs>
  <rect width="1200" height="630" fill="url(#bg)" />
  <g stroke="#7da0d2" stroke-opacity="0.18">
    <path d="M0 84H1200M0 168H1200M0 252H1200M0 336H1200M0 420H1200M0 504H1200M0 588H1200" />
    <path d="M120 0V630M240 0V630M360 0V630M480 0V630M600 0V630M720 0V630M840 0V630M960 0V630M1080 0V630" />
  </g>
  <g transform="translate(80 80)">
    <rect x="0" y="0" width="96" height="96" rx="24" fill="#12396c" />
    <path d="M18 26h60v11H18zM18 45h45v11H18zM18 64h60v11H18z" fill="#dce8ff" />
    <path d="M61 26h10l15 23-10 10z" fill="url(#accent)" />
  </g>
  <text x="80" y="290" font-family="Inter, Arial, sans-serif" font-size="66" font-weight="800" fill="#eef4ff">任能量化</text>
  <text x="80" y="356" font-family="Inter, Arial, sans-serif" font-size="40" font-weight="700" fill="#c8d8ee">EnergyQuant Research</text>
  <text x="80" y="412" font-family="JetBrains Mono, monospace" font-size="24" fill="#8fb0db">Solutions / enyquant.com</text>
  <text x="80" y="468" font-family="Inter, Arial, sans-serif" font-size="26" fill="#9bb7d8">Case studies and delivery stories</text>
</svg>