<svg width="64" height="64" viewBox="0 0 64 64" fill="none" xmlns="http://www.w3.org/2000/svg" role="img" aria-label="任能量化 mark">
  <defs>
    <linearGradient id="accent" x1="0" y1="0" x2="1" y2="1">
      <stop offset="0%" stop-color="#ffd86a" />
      <stop offset="100%" stop-color="#e8b33d" />
    </linearGradient>
  </defs>
  <rect x="4" y="4" width="56" height="56" rx="16" fill="#ffffff" />
  <g transform="translate(8 10)" fill="#12396c">
    <path d="M0 3h18l-3 5H0z" />
    <path d="M0 13h18l-3 5H0z" />
    <path fill-rule="evenodd" d="M27 0h9c7.7 0 14 6.3 14 14v4c0 7.7-6.3 14-14 14h-9c-7.7 0-14-6.3-14-14v-4C13 6.3 19.3 0 27 0zm0 6c-4.4 0-8 3.6-8 8v4c0 4.4 3.6 8 8 8h9c4.4 0 8-3.6 8-8v-4c0-4.4-3.6-8-8-8h-9z" />
    <path d="M32 20h9l10 10H40l-8-8z" />
    <path d="M38 24h6l8 8h-9l-5-5z" fill="url(#accent)" />
  </g>
</svg>
